<svg aria-hidden="true" style="position: absolute; width: 0; height: 0; overflow: hidden;" version="1.1" xmlns="http://www.w3.org/2000/svg" xmlns:xlink="http://www.w3.org/1999/xlink">
<defs>
<symbol id="icon-triangle-down" viewBox="0 0 64 32">
<path d="M0 0l32 32 32-32h-64z"></path>
</symbol>
<symbol id="icon-export-arrow" viewBox="0 0 30 32">
<path   opacity="0.3" d="M12.336 10.98h1.468v7.529h2.51v-7.529h1.468l-2.723-2.723-2.723 2.723z"></path>
<path  d="M15.059 4.706l-8.784 8.784h5.020v7.529h7.529v-7.529h5.020l-8.784-8.784zM16.314 10.98v7.529h-2.51v-7.529h-1.468l2.723-2.723 2.723 2.723h-1.468zM6.274 23.529h17.569v2.51h-17.569v-2.51z"></path>
</symbol>
<symbol id="icon-search" viewBox="0 0 32 32">
<path  d="M20.667 18.667h-1.053l-0.373-0.36c1.307-1.52 2.093-3.493 2.093-5.64 0-4.787-3.88-8.667-8.667-8.667s-8.667 3.88-8.667 8.667c0 4.787 3.88 8.667 8.667 8.667 2.147 0 4.12-0.787 5.64-2.093l0.36 0.373v1.053l6.667 6.653 1.987-1.987-6.653-6.667zM12.667 18.667c-3.32 0-6-2.68-6-6s2.68-6 6-6c3.32 0 6 2.68 6 6s-2.68 6-6 6z"></path>
</symbol>
<symbol id="icon-arrow-left" viewBox="0 0 20 32">
<path  d="M18.83 3.956l-2.637-2.622-14.652 14.667 14.667 14.667 2.622-2.622-12.044-12.044 12.044-12.044z"></path>
</symbol>
<symbol id="icon-arrow-right" viewBox="0 0 20 32">
<path  d="M0.726 28.044l2.622 2.622 14.667-14.667-14.667-14.667-2.622 2.622 12.044 12.044-12.044 12.044z"></path>
</symbol>
</defs>
</svg>